<?xml version="1.0" encoding="UTF-8"?>
<!-- Generated by Pixelmator Pro 3.7 -->
<svg width="800" height="800" viewBox="0 0 800 800" xmlns="http://www.w3.org/2000/svg">
    <path id="secondary" fill="#6e5dff" stroke="none" d="M 666.666687 200 L 533.333313 200 L 509.333313 151.666687 C 503.631134 140.349854 492.005219 133.245117 479.333344 133.333313 L 320.666656 133.333313 C 307.994781 133.245117 296.368866 140.349854 290.666687 151.666687 L 266.666656 200 L 133.333328 200 C 114.923843 200 100 214.923828 100 233.333313 L 100 633.333313 C 100 651.742798 114.923843 666.666687 133.333328 666.666687 L 666.666687 666.666687 C 685.076172 666.666687 700 651.742798 700 633.333313 L 700 233.333313 C 700 214.923828 685.076172 200 666.666687 200 Z M 400 533.333374 C 344.771515 533.333374 300 488.561829 300 433.333344 C 300 378.104858 344.771515 333.333344 400 333.333344 C 455.228485 333.333344 500 378.104858 500 433.333344 C 500 488.561829 455.228485 533.333374 400 533.333374 Z"/>
    <path id="primary" fill="none" stroke="#000000" stroke-width="66.666664" stroke-linecap="round" stroke-linejoin="round" d="M 500 433.333344 C 500 488.561829 455.228485 533.333374 400 533.333374 C 344.771515 533.333374 300 488.561829 300 433.333344 C 300 378.104858 344.771515 333.333344 400 333.333344 C 455.228485 333.333344 500 378.104858 500 433.333344 Z M 666.666687 200 L 533.333313 200 L 509.333313 151.666687 C 503.631134 140.349854 492.005219 133.245117 479.333344 133.333313 L 320.666656 133.333313 C 307.994781 133.245117 296.368866 140.349854 290.666687 151.666687 L 266.666656 200 L 133.333328 200 C 114.923843 200 100 214.923828 100 233.333313 L 100 633.333313 C 100 651.742798 114.923843 666.666687 133.333328 666.666687 L 666.666687 666.666687 C 685.076172 666.666687 700 651.742798 700 633.333313 L 700 233.333313 C 700 214.923828 685.076172 200 666.666687 200 Z"/>
</svg>
