<?xml version="1.0" encoding="UTF-8"?>
<!-- Generated by Pixelmator Pro 3.7 -->
<svg width="800" height="800" viewBox="0 0 800 800" xmlns="http://www.w3.org/2000/svg">
    <path id="secondary" fill="#6e5dff" stroke="none" d="M 283.333344 433.333344 C 283.333344 433.333344 400 333.333344 400 216.666687 C 400 152.233459 347.766571 100 283.333344 100 C 218.900116 100 166.666672 152.233459 166.666672 216.666687 C 166.666672 333.333344 283.333344 433.333344 283.333344 433.333344 Z"/>
    <path id="primary" fill="none" stroke="#000000" stroke-width="66.666664" stroke-linecap="round" stroke-linejoin="round" d="M 400 300 L 666.666687 300 C 685.076172 300 700 314.923828 700 333.333344 L 700 666.666687 C 700 685.076172 685.076172 700 666.666687 700 L 133.333328 700 C 114.923843 700 100 685.076172 100 666.666687 L 100 333.333344 C 100 314.923828 114.923843 300 133.333328 300 L 166.666672 300"/>
    <path id="primary-2" fill="none" stroke="#000000" stroke-width="66.666664" stroke-linecap="round" stroke-linejoin="round" d="M 433.333344 300 L 533.333313 566.666687 M 700 566.666687 L 100 566.666687 M 300 566.666687 L 300 700 M 283.333344 433.333344 C 283.333344 433.333344 400 333.333344 400 216.666687 C 400 152.233459 347.766571 100 283.333344 100 C 218.900116 100 166.666672 152.233459 166.666672 216.666687 C 166.666672 333.333344 283.333344 433.333344 283.333344 433.333344 Z"/>
</svg>
