<?xml version="1.0" encoding="UTF-8"?>
<!-- Generated by Pixelmator Pro 3.7 -->
<svg width="800" height="800" viewBox="0 0 800 800" xmlns="http://www.w3.org/2000/svg">
    <g id="hurricane">
        <path id="secondary" fill="#6e5dff" stroke="none" d="M 560 400 C 560 488.36554 488.36554 560 400 560 C 311.63443 560 240 488.36554 240 400 C 240 311.63443 311.63443 240 400 240 C 488.36554 240 560 311.63443 560 400 Z"/>
        <path id="primary" fill="none" stroke="#000000" stroke-width="80" stroke-linecap="round" stroke-linejoin="round" d="M 240 400 C 240 201.17749 401.17749 40 600 40"/>
        <path id="primary-2" fill="none" stroke="#000000" stroke-width="80" stroke-linecap="round" stroke-linejoin="round" d="M 400 240 C 598.82251 240 760 401.17749 760 600"/>
        <path id="primary-3" fill="none" stroke="#000000" stroke-width="80" stroke-linecap="round" stroke-linejoin="round" d="M 560 400 C 560 598.82251 398.82251 760 200 760"/>
        <path id="primary-4" fill="none" stroke="#000000" stroke-width="80" stroke-linecap="round" stroke-linejoin="round" d="M 400 560 C 201.17749 560 40 398.82251 40 200"/>
        <path id="primary-5" fill="none" stroke="#000000" stroke-width="80" stroke-linecap="round" stroke-linejoin="round" d="M 286.799988 513.200012 C 209.951767 436.044983 172.15773 328.251099 184 220"/>
        <path id="primary-6" fill="none" stroke="#000000" stroke-width="80" stroke-linecap="round" stroke-linejoin="round" d="M 513.200012 513.200012 C 436.044983 590.048218 328.251099 627.842285 220 616"/>
        <path id="primary-7" fill="none" stroke="#000000" stroke-width="80" stroke-linecap="round" stroke-linejoin="round" d="M 513.200012 286.799988 C 590.048218 363.955017 627.842285 471.748901 616 580"/>
        <path id="primary-8" fill="none" stroke="#000000" stroke-width="80" stroke-linecap="round" stroke-linejoin="round" d="M 286.799988 286.799988 C 363.955017 209.951782 471.748901 172.157715 580 184"/>
        <path id="primary-9" fill="none" stroke="#000000" stroke-width="80" stroke-linecap="round" stroke-linejoin="round" d="M 560 400 C 560 488.36554 488.36554 560 400 560 C 311.63443 560 240 488.36554 240 400 C 240 311.63443 311.63443 240 400 240 C 488.36554 240 560 311.63443 560 400 Z"/>
    </g>
</svg>
